<?xml version="1.0" encoding="utf-8"?>
<!-- Generator: Adobe Illustrator 26.0.0, SVG Export Plug-In . SVG Version: 6.00 Build 0)  -->
<svg version="1.1" id="Capa_1" xmlns="http://www.w3.org/2000/svg" xmlns:xlink="http://www.w3.org/1999/xlink" x="0px" y="0px"
	 viewBox="0 0 14.22 8.72" style="enable-background:new 0 0 14.22 8.72;" xml:space="preserve">
<style type="text/css">
	.st0{fill:#FFFFFF;}
</style>
<g>
	<path class="st0" d="M13.48,1.84H0.8c-0.35,0-0.63-0.28-0.63-0.63V0.78c0-0.35,0.28-0.63,0.63-0.63h12.69
		c0.35,0,0.63,0.28,0.63,0.63v0.43C14.11,1.56,13.83,1.84,13.48,1.84z"/>
	<path class="st0" d="M13.48,5.12H0.8c-0.35,0-0.63-0.28-0.63-0.63V4.06c0-0.35,0.28-0.63,0.63-0.63h12.69
		c0.35,0,0.63,0.28,0.63,0.63v0.43C14.11,4.84,13.83,5.12,13.48,5.12z"/>
	<path class="st0" d="M13.48,8.4H0.8c-0.35,0-0.63-0.28-0.63-0.63V7.34C0.17,7,0.45,6.71,0.8,6.71h12.69c0.35,0,0.63,0.28,0.63,0.63
		v0.43C14.11,8.12,13.83,8.4,13.48,8.4z"/>
</g>
</svg>
