<?xml version="1.0" encoding="utf-8"?>
<!-- Generator: Adobe Illustrator 26.0.0, SVG Export Plug-In . SVG Version: 6.00 Build 0)  -->
<svg version="1.1" id="Capa_1" xmlns="http://www.w3.org/2000/svg" xmlns:xlink="http://www.w3.org/1999/xlink" x="0px" y="0px"
	 viewBox="0 0 10.75 10.83" style="enable-background:new 0 0 10.75 10.83;" xml:space="preserve">
<style type="text/css">
	.st0{fill:#FFFFFF;}
</style>
<g>
	<path class="st0" d="M9.25,10.53L0.28,1.56c-0.25-0.25-0.25-0.64,0-0.89l0.3-0.3c0.25-0.25,0.64-0.25,0.89,0l8.97,8.97
		c0.25,0.25,0.25,0.64,0,0.89l-0.3,0.3C9.89,10.77,9.49,10.77,9.25,10.53z"/>
</g>
<g>
	<path class="st0" d="M1.47,10.53l8.97-8.97c0.25-0.25,0.25-0.64,0-0.89l-0.3-0.3c-0.25-0.25-0.64-0.25-0.89,0L0.28,9.33
		c-0.25,0.25-0.25,0.64,0,0.89l0.3,0.3C0.83,10.77,1.23,10.77,1.47,10.53z"/>
</g>
</svg>
