<?xml version="1.0" encoding="utf-8"?>
<!-- Generator: Adobe Illustrator 26.0.0, SVG Export Plug-In . SVG Version: 6.00 Build 0)  -->
<svg version="1.1" id="Capa_1" xmlns="http://www.w3.org/2000/svg" xmlns:xlink="http://www.w3.org/1999/xlink" x="0px" y="0px"
	 viewBox="0 0 100 100" style="enable-background:new 0 0 100 100;" xml:space="preserve">
<style type="text/css">
	.st0{fill:#FFFFFF;}
	.st1{opacity:0.12;}
	.st2{fill:#004DE1;}
	.st3{fill:#007FFD;}
	.st4{fill:#1478B3;}
</style>
<g>
	<path class="st0" d="M83.22,99.56H17c-9.2,0-16.67-7.46-16.67-16.67V0h99.56v82.89C99.89,92.09,92.43,99.56,83.22,99.56z"/>
	<g>
		<rect x="34.66" y="60.67" class="st1" width="1.14" height="0.45"/>
		<path class="st2" d="M19.57,68.39l2.21-2.15c0.3-0.29,0.79-0.07,0.78,0.35c-0.03,1.44,0.4,2.58,1.01,3.37
			c0.26,0.34-0.01,0.82-0.43,0.75l-2.98-0.51c-0.09-0.02-0.18-0.06-0.24-0.12C19.33,69.53,19.27,69.03,19.57,68.39z"/>
		<path class="st3" d="M19.57,68.39l2.23-2.17c0.29-0.28,0.77-0.06,0.76,0.34c-0.02,0.62,0.05,1.18,0.18,1.68l-3.33,1.07
			C19.35,69.03,19.41,68.73,19.57,68.39z"/>
		<path class="st2" d="M25.44,63.29l3.04-2.84c0.36-0.33,0.94,0,0.81,0.48c-1.06,4.12,0.79,7.95,2.81,10.43
			c0.29,0.35-0.02,0.87-0.47,0.79l-4.54-0.79c-0.06-0.01-0.13-0.03-0.18-0.07c-2.21-1.32-3.61-5.25-1.54-7.94
			C25.4,63.34,25.42,63.31,25.44,63.29z"/>
		<path class="st3" d="M25.41,63.33l3.06-2.85c0.37-0.34,0.95,0.01,0.82,0.49c-0.47,1.86-0.35,3.66,0.11,5.31l-4.88,1.48
			C24.18,66.28,24.37,64.65,25.41,63.33z"/>
		<circle cx="62.31" cy="55.23" r="20.06"/>
		<path class="st2" d="M32.79,54.77c0,0,9.28-13.81,19.36-18.56c10.24-4.83,19.34,1.16,19.34,1.16C49,30.36,38.56,50.36,44.71,62.96
			c4.6,10.6,21.47,18.75,35.16,1.9c-5.43,10.4-14.71,12.67-20.26,11.99c-5.12-0.63-17.45-2.86-20.89-3.49
			c-0.72-0.13-1.4-0.4-2.02-0.78C30.16,68.48,30.7,59.87,32.79,54.77z"/>
		<path class="st3" d="M39.19,57.75c0.34,3.09-1.59,5.96-4.58,6.81l-2.01,0.57l-0.86,0.24c-0.82-3.69-0.13-7.71,1.05-10.59
			c0,0,5.12-7.62,11.89-13.49C39.36,47.52,38.73,53.63,39.19,57.75z"/>
		<path class="st0" d="M80.24,53.13c-0.66-7.2-5.9-13.17-12.9-15c-2.76-0.72-5.07-0.63-7.56-0.17c-0.56,0.1-0.6,0.89-0.06,1.06
			c4.38,1.3,8.34,3.92,11.11,7.38c1.37-0.3,2.86,0.6,3.46,2.15c0.46,1.19,0.27,2.45-0.39,3.29c0.83,2.35,1.17,4.88,0.85,7.52
			c-0.16,1.39-0.47,2.72-0.92,3.98c0.4,0.46,0.52,1.21,0.24,1.92c-0.31,0.8-1.02,1.3-1.7,1.26c-0.67,1.15-1.45,2.22-2.33,3.2
			c-0.36,0.39,0.09,0.99,0.56,0.76C76.75,67.46,80.95,60.9,80.24,53.13z"/>
		<path class="st0" d="M69.51,47.76c0,0.48,0.04,0.93,0.14,1.36c0.12,0.5,0.32,0.97,0.59,1.39c0.28,0.41,0.63,0.77,1.06,1.05
			c0.35,0.23,0.75,0.41,1.18,0.57c0.09,0.03,0.06,0.13-0.05,0.13c-0.46,0.02-0.93-0.07-1.37-0.26c-0.54-0.23-1.03-0.63-1.36-1.14
			c-0.63-0.94-0.72-2.17-0.3-3.14C69.44,47.67,69.51,47.68,69.51,47.76z"/>
		<g>
			<path class="st0" d="M72.39,63.28c-0.21,0.13-0.39,0.27-0.55,0.43c-0.19,0.19-0.34,0.4-0.44,0.63c-0.1,0.23-0.16,0.48-0.17,0.74
				c-0.01,0.22,0.02,0.43,0.07,0.66c0.01,0.05-0.04,0.06-0.07,0.02c-0.13-0.19-0.22-0.42-0.26-0.66c-0.05-0.3,0-0.62,0.12-0.9
				c0.24-0.52,0.74-0.89,1.27-0.97C72.42,63.22,72.43,63.25,72.39,63.28z"/>
		</g>
	</g>
</g>
</svg>
