<?xml version="1.0" encoding="utf-8"?>
<!-- Generator: Adobe Illustrator 26.0.0, SVG Export Plug-In . SVG Version: 6.00 Build 0)  -->
<svg version="1.1" id="Capa_1" xmlns="http://www.w3.org/2000/svg" xmlns:xlink="http://www.w3.org/1999/xlink" x="0px" y="0px"
	 viewBox="0 0 100 26.22" style="enable-background:new 0 0 100 26.22;" xml:space="preserve">
<style type="text/css">
	.st0{fill:#FFFFFF;}
	.st1{opacity:0.12;}
	.st2{fill:#004DE1;}
	.st3{fill:#007FFD;}
	.st4{fill:#1478B3;}
</style>
<g>
	<g>
		<g>
			<path class="st0" d="M0.44,16.92h6.25c0,1.34,0.91,1.81,2.37,1.81c1.19,0,1.84-0.5,1.84-1.25c0-0.94-1.53-1.31-3.4-1.84
				c-2.97-0.91-6.84-2.72-6.84-7.09c0-4.53,3.44-6.87,7.87-6.87c4.4,0,8.06,2.19,8.06,7.31l-6.25,0c0-0.81-0.47-1.5-1.81-1.5
				c-1.06,0-1.62,0.44-1.62,1.09c0,1.12,1.78,1.47,3.87,2.09c2.9,0.87,6.37,2.75,6.37,7c0,4.53-3.5,6.87-8.15,6.87
				C4.19,24.54,0.44,22.36,0.44,16.92z"/>
			<path class="st0" d="M18.09,13.11c0-6.47,4.81-11.43,11.43-11.43c5.56,0,10.21,3.87,10.9,9.21h-6.47
				c-0.47-1.84-2.28-3.09-4.44-3.09c-3.09,0-5.19,2.28-5.19,5.31c0,3.03,2.09,5.31,5.19,5.31c2.19,0,3.97-1.25,4.44-3.12h6.5
				c-0.72,5.37-5.34,9.25-10.93,9.25C22.9,24.54,18.09,19.58,18.09,13.11z"/>
			<path class="st0" d="M41.71,13.11c0-6.47,5.12-11.43,11.59-11.43c6.47,0,11.59,4.97,11.59,11.43c0,6.47-5.12,11.43-11.59,11.43
				C46.83,24.54,41.71,19.58,41.71,13.11z M58.64,13.11c0-3.03-2.25-5.31-5.34-5.31c-3.09,0-5.34,2.28-5.34,5.31
				c0,3.03,2.25,5.31,5.34,5.31C56.39,18.42,58.64,16.14,58.64,13.11z"/>
			<path class="st0" d="M83.94,10.02c0,4.87-3.56,7.84-7.97,7.84h-2.5v6.18h-6.25l0-21.87h6.25l2.5,0
				C80.38,2.18,83.94,5.15,83.94,10.02z M77.69,10.02c0-1.12-0.78-1.78-1.72-1.78h-2.5v3.56h2.5C76.91,11.8,77.69,11.14,77.69,10.02
				z"/>
			<path class="st0" d="M99.56,18.3v5.75H87.69h-1.87l0-21.87h6.25l7.34,0v5.75h-7.34v2.44h6.56v5.31h-6.56v2.62H99.56z"/>
		</g>
	</g>
</g>
</svg>
